<?xml version="1.0" encoding="UTF-8"?>
<svg class="" width="26" height="26" viewBox="0 0 26 26" fill="none" xmlns="http://www.w3.org/2000/svg" style="transition: none !important; animation-duration: 0s !important; animation-delay: -0.0001s; animation-play-state: paused; fill: none; height: 26px; transition-property: none; visibility: visible; width: 26px"><path d="M11.2276 3.24948C10.1722 3.23718 9.12482 3.43443 8.1462 3.8298C7.16758 4.22518 6.27715 4.81081 5.52649 5.55277C4.77583 6.29474 4.17986 7.17829 3.77311 8.15223C3.36636 9.12617 3.15692 10.1711 3.15692 11.2266C3.15692 12.2821 3.36636 13.327 3.77311 14.301C4.17986 15.2749 4.77583 16.1585 5.52649 16.9004C6.27715 17.6424 7.16758 18.228 8.1462 18.6234C9.12482 19.0188 10.1722 19.216 11.2276 19.2037C13.3271 19.1793 15.3324 18.328 16.8084 16.8347C18.2845 15.3414 19.1123 13.3263 19.1123 11.2266C19.1123 9.1269 18.2845 7.11185 16.8084 5.61851C15.3324 4.12517 13.3271 3.27395 11.2276 3.24948Z" stroke="#212121" stroke-width="1.5" stroke-miterlimit="10" style="transition: none !important; animation-duration: 0s !important; animation-delay: -0.0001s; animation-play-state: paused; fill: none; stroke: rgb(33, 33, 33); stroke-miterlimit: 10; stroke-width: 1.5px; transform-origin: 0px 0px; transition-property: none; visibility: visible"></path><path d="M17.1783 17.1799L22.7499 22.7515" stroke="#212121" stroke-width="1.5" stroke-miterlimit="10" stroke-linecap="round" style="transition: none !important; animation-duration: 0s !important; animation-delay: -0.0001s; animation-play-state: paused; fill: none; stroke: rgb(33, 33, 33); stroke-linecap: round; stroke-miterlimit: 10; stroke-width: 1.5px; transform-origin: 0px 0px; transition-property: none; visibility: visible"></path></svg>