<?xml version="1.0" encoding="UTF-8"?>
<svg width="34" height="31" viewBox="0 0 34 31" fill="none" xmlns="http://www.w3.org/2000/svg" style="transition: none !important; animation-duration: 0s !important; animation-delay: -0.0001s; animation-play-state: paused; fill: none; height: 31px; transition-property: none; visibility: visible; width: 34px"><path fill-rule="evenodd" clip-rule="evenodd" d="M8.42951 6.21421L11.5265 21.7802L28.3365 20.7912L31.7275 6.03421H20.0505L8.42951 6.21421ZM11.0355 23.0172C10.7505 23.0172 10.5005 22.8152 10.4445 22.5312L7.13851 5.91121L4.56951 3.20721H0.603512C0.270512 3.20721 -0.000488281 2.93721 -0.000488281 2.60421C-0.000488281 2.27021 0.270512 2.00021 0.603512 2.00021H4.82851C4.99451 2.00021 5.15251 2.06821 5.26651 2.18821L7.95151 5.01421L20.0415 4.82721H32.4855C32.6695 4.82721 32.8435 4.91121 32.9575 5.05521C33.0725 5.19921 33.1155 5.38721 33.0735 5.56621L29.4115 21.5022C29.3515 21.7632 29.1265 21.9542 28.8595 21.9692L11.0725 23.0162C11.0605 23.0172 11.0485 23.0172 11.0355 23.0172Z" fill="#212121" style="transition: none !important; animation-duration: 0s !important; animation-delay: -0.0001s; animation-play-state: paused; fill: rgb(33, 33, 33); fill-rule: evenodd; transform-origin: 0px 0px; transition-property: none; visibility: visible"></path><path fill-rule="evenodd" clip-rule="evenodd" d="M29.4277 25.4718H11.1167C10.7837 25.4718 10.5127 25.2008 10.5127 24.8678V22.4128C10.5127 22.0798 10.7837 21.8098 11.1167 21.8098C11.4497 21.8098 11.7207 22.0798 11.7207 22.4128V24.2638H29.4277C29.7607 24.2638 30.0317 24.5348 30.0317 24.8678C30.0317 25.2008 29.7607 25.4718 29.4277 25.4718Z" fill="#212121" style="transition: none !important; animation-duration: 0s !important; animation-delay: -0.0001s; animation-play-state: paused; fill: rgb(33, 33, 33); fill-rule: evenodd; transform-origin: 0px 0px; transition-property: none; visibility: visible"></path><path fill-rule="evenodd" clip-rule="evenodd" d="M14.417 28.2785C14.417 29.5785 13.363 30.6325 12.063 30.6325C10.763 30.6325 9.70898 29.5785 9.70898 28.2785C9.70898 26.9785 10.763 25.9245 12.063 25.9245C13.363 25.9245 14.417 26.9785 14.417 28.2785Z" fill="#212121" style="transition: none !important; animation-duration: 0s !important; animation-delay: -0.0001s; animation-play-state: paused; fill: rgb(33, 33, 33); fill-rule: evenodd; transform-origin: 0px 0px; transition-property: none; visibility: visible"></path><path fill-rule="evenodd" clip-rule="evenodd" d="M30.2725 28.2785C30.2725 29.5785 29.2185 30.6325 27.9185 30.6325C26.6185 30.6325 25.5645 29.5785 25.5645 28.2785C25.5645 26.9785 26.6185 25.9245 27.9185 25.9245C29.2185 25.9245 30.2725 26.9785 30.2725 28.2785Z" fill="#212121" style="transition: none !important; animation-duration: 0s !important; animation-delay: -0.0001s; animation-play-state: paused; fill: rgb(33, 33, 33); fill-rule: evenodd; transform-origin: 0px 0px; transition-property: none; visibility: visible"></path><path fill-rule="evenodd" clip-rule="evenodd" d="M10.2418 5.6976C10.6258 4.5226 11.7138 3.7146 12.9668 3.7146C13.2388 3.7146 13.5278 3.7656 13.8468 3.8696C14.1268 3.9606 14.4338 3.8356 14.5698 3.5736C15.0698 2.6106 16.0438 2.0126 17.1118 2.0126C17.8158 2.0126 18.4978 2.2796 19.0338 2.7656C19.1688 2.8866 19.3518 2.9416 19.5298 2.9146C19.7078 2.8876 19.8658 2.7816 19.9588 2.6266C20.4858 1.7386 21.4078 1.2076 22.4238 1.2076C23.7068 1.2076 24.8418 2.0786 25.1848 3.3246C25.2328 3.5006 25.3568 3.6436 25.5228 3.7176C25.6898 3.7916 25.8788 3.7856 26.0398 3.7036C27.7808 2.8176 29.7908 3.9476 30.1428 5.6976H31.3668C31.3668 5.6766 31.3738 5.6556 31.3698 5.6346C31.0678 3.6606 29.3328 2.1736 27.3338 2.1736C26.9218 2.1736 26.5138 2.2386 26.1148 2.3686C25.4548 0.946603 24.0198 -0.000396729 22.4238 -0.000396729C21.2028 -0.000396729 20.0798 0.535603 19.3098 1.4586C18.6538 1.0336 17.8928 0.804603 17.1118 0.804603C15.7558 0.804603 14.5078 1.4796 13.7508 2.5936C13.4818 2.5356 13.2228 2.5076 12.9668 2.5076C11.0888 2.5076 9.45882 3.7796 9.00382 5.5996C8.99582 5.6326 9.00182 5.6646 8.99982 5.6976H10.2418Z" fill="#212121" style="transition: none !important; animation-duration: 0s !important; animation-delay: -0.0001s; animation-play-state: paused; fill: rgb(33, 33, 33); fill-rule: evenodd; transform-origin: 0px 0px; transition-property: none; visibility: visible"></path></svg>