<?xml version="1.0" encoding="UTF-8"?>
<svg width="26" height="26" viewBox="0 0 26 26" fill="none" xmlns="http://www.w3.org/2000/svg" style="transition: none !important; animation-duration: 0s !important; animation-delay: -0.0001s; animation-play-state: paused; fill: none; height: 26px; transition-property: none; visibility: visible; width: 26px"><path d="M21.6666 22.8333C21.6666 21.3215 21.6666 19.4822 21.4801 18.8671C21.0599 17.4822 19.9762 16.3984 18.5912 15.9783C17.9761 15.7917 17.2202 15.7917 15.7083 15.7917H10.2917C8.77979 15.7917 8.02385 15.7917 7.40874 15.9783C6.02381 16.3984 4.94002 17.4822 4.51991 18.8671C4.33331 19.4822 4.33331 21.3215 4.33331 22.8333M17.875 8.125C17.875 10.8174 15.6924 13 13 13C10.3076 13 8.12498 10.8174 8.12498 8.125C8.12498 5.43261 10.3076 3.25 13 3.25C15.6924 3.25 17.875 5.43261 17.875 8.125Z" stroke="#212121" stroke-width="1.5" fill="none" stroke-miterlimit="10" stroke-linecap="round" stroke-linejoin="round" style="transition: none !important; animation-duration: 0s !important; animation-delay: -0.0001s; animation-play-state: paused; fill: none; stroke: rgb(33, 33, 33); stroke-linecap: round; stroke-linejoin: round; stroke-miterlimit: 10; stroke-width: 1.5px; transform-origin: 0px 0px; transition-property: none; visibility: visible"></path></svg>