<?xml version="1.0" encoding="UTF-8"?>
<svg xmlns="http://www.w3.org/2000/svg" width="120" height="40" viewBox="0 0 120 40" fill="none" style="transition: none !important; animation-duration: 0s !important; animation-delay: -0.0001s; animation-play-state: paused; fill: none; height: 40px; transition-property: none; visibility: visible; width: 120px"><g clip-path="url(#clip0_358_2556)" style="transition: none !important; animation-duration: 0s !important; animation-delay: -0.0001s; animation-play-state: paused; clip-path: url(&quot;#clip0_358_2556&quot;); fill: none; transform-origin: 0px 0px; transition-property: none; visibility: visible"><path d="M67.9676 11.358C68.0368 11.358 68.1232 11.358 68.1923 11.3407C69.3329 11.2197 70.3525 10.2865 70.5253 9.1287C70.6981 7.98813 69.9723 7.03765 68.8663 6.91668C68.7972 6.91668 68.7108 6.8994 68.6416 6.8994C68.5725 6.8994 68.4861 6.8994 68.417 6.91668C67.2764 7.03765 66.2568 7.97084 66.084 9.1287C65.9976 9.73355 66.1531 10.2693 66.4815 10.684C66.8271 11.0988 67.3455 11.358 67.9676 11.358Z" fill="#212121" style="transition: none !important; animation-duration: 0s !important; animation-delay: -0.0001s; animation-play-state: paused; fill: rgb(33, 33, 33); transform-origin: 0px 0px; transition-property: none; visibility: visible"></path><path d="M119.985 29.9182C119.985 26.8767 118.498 24.0944 117.185 21.6404C116.062 19.5494 115.059 17.6484 115.319 16.2314C115.509 15.2118 116.235 14.6242 117.358 14.5551C117.392 14.5551 117.427 14.5378 117.462 14.5378C117.513 14.5205 117.565 14.4859 117.617 14.4514C117.669 14.4168 117.703 14.365 117.721 14.3131C117.721 14.2958 117.738 14.2958 117.738 14.2786L118.291 12.8442C118.343 12.6887 118.36 12.585 118.308 12.4813C118.274 12.4122 118.222 12.343 118.136 12.2739C118.032 12.1875 117.859 12.1184 117.634 12.0493C117.323 11.9456 116.926 11.8764 116.563 11.8764C114.938 11.8764 112.951 12.4122 111.223 16.7152C111.154 16.888 107.819 25.5287 107.715 25.8052C107.3 26.8248 106.419 28.0518 104.552 28.0518C103.74 28.0518 103.083 27.7407 102.721 27.2223C102.651 27.1186 102.6 27.0149 102.548 26.9112C102.409 26.5656 102.358 26.1509 102.444 25.7015C102.479 25.546 102.513 25.3732 102.565 25.2004C102.651 24.9066 102.772 24.5783 102.911 24.2499C104.189 20.9837 108.734 9.35336 110.134 5.77612C110.307 5.3268 110.065 4.96389 109.581 4.96389H107.974C107.801 4.96389 107.611 5.01574 107.456 5.10214C107.162 5.2404 106.92 5.49962 106.799 5.77612C106.177 7.34872 105.295 9.62987 104.362 12.032C103.636 13.8811 102.893 15.7993 102.202 17.5447C101.995 17.1991 101.753 16.8708 101.494 16.5597C101.217 16.2486 100.923 15.9549 100.612 15.6956C99.2643 14.5896 97.5534 13.9848 95.6697 13.9848C93.354 13.9848 91.1247 14.918 89.3793 16.4387C89.3102 16.4906 89.2583 16.5597 89.1892 16.6115C89.1374 16.6461 89.1028 16.698 89.051 16.7325C87.9104 17.804 87.0118 19.1346 86.4588 20.6035C86.4588 20.6208 86.4415 20.6381 86.4415 20.6727C86.3724 20.8628 86.3205 21.0529 86.2514 21.2602C86.1477 21.6231 86.0613 21.9861 86.0094 22.3662C85.9576 22.7119 85.923 23.0575 85.9058 23.4031C85.8712 24.4054 86.0267 25.3905 86.3378 26.2891C86.1823 26.5483 85.9749 26.7903 85.7502 27.0149C85.1108 27.6198 84.264 28.0173 83.3827 28.0864C83.2963 28.0864 83.2271 28.0864 83.1407 28.0864C82.7951 28.0864 82.4668 28.0173 82.173 27.9136C81.8101 27.7753 81.499 27.5507 81.2916 27.2569C80.8942 26.6866 80.8942 25.8571 81.2571 24.9066C81.3435 24.6647 81.8965 23.1957 82.3976 21.8824C82.7778 20.8628 83.1235 19.9123 83.1926 19.7222C83.2271 19.6185 83.2963 19.463 83.3481 19.2729C83.4345 18.91 83.4864 18.4088 83.2444 17.8904C83.1407 17.683 83.0198 17.5102 82.8815 17.3546C82.605 17.0609 82.2421 16.888 81.8965 16.7498C81.7582 16.6979 81.62 16.6461 81.4817 16.6115C81.2398 16.5424 80.9806 16.4387 80.6868 16.3178C80.6695 16.3178 80.6695 16.3005 80.6522 16.3005C80.1683 16.0931 77.8354 15.0044 77.8354 12.9306C77.8354 12.8788 77.8354 12.8269 77.8354 12.7924C77.8354 12.7751 77.8354 12.7578 77.8354 12.7405C77.8354 12.7232 77.8354 12.6887 77.8354 12.6714C77.8008 12.3603 77.6971 12.1702 77.5588 12.0665C77.5416 12.0665 77.5416 12.0493 77.5243 12.0493C77.5243 12.0493 77.5243 12.0493 77.507 12.0493C77.4897 12.032 77.4724 12.032 77.4552 12.0147C77.4552 12.0147 77.4552 12.0147 77.4379 12.0147C77.4379 12.0147 77.4379 12.0147 77.4206 12.0147C77.4033 12.0147 77.4033 11.9974 77.386 11.9974C77.2996 11.9629 77.2132 11.9456 77.1095 11.9456H75.5196C75.1913 11.9456 74.8284 12.1184 74.5865 12.3776C74.4828 12.4813 74.3964 12.6195 74.3445 12.7578C73.9989 13.6391 73.5841 14.6933 73.1521 15.8166C71.6313 19.7222 69.8168 24.4054 69.2984 25.7361C69.2811 25.788 69.2638 25.8398 69.2465 25.8916C68.8318 26.9112 67.9504 28.1382 66.0667 28.1382C65.2545 28.1382 64.5805 27.8272 64.2349 27.3087C64.0275 26.9977 63.9238 26.6002 63.9411 26.1336C63.9584 25.7707 64.0448 25.3732 64.2003 24.9584C64.5287 24.0944 65.2372 22.2971 65.9803 20.3962C66.6889 18.5816 67.432 16.6461 67.9504 15.3327C68.1232 14.8834 67.8813 14.5205 67.3974 14.5205H65.7902H65.6347C65.531 14.5205 65.41 14.5378 65.2891 14.5723C65.2718 14.5723 65.2718 14.5723 65.2545 14.5723C64.8743 14.676 64.4941 14.9352 64.2695 15.2118C63.44 16.2141 62.3685 17.0263 61.1934 17.6139C60.0183 18.2014 58.7567 18.5816 57.547 18.7199C57.3742 18.2706 57.1495 17.8212 56.873 17.4065C56.8558 17.3892 56.8558 17.3719 56.8385 17.3546C56.6657 17.0954 56.4929 16.8535 56.2855 16.6115C54.8511 14.9525 52.7946 14.0366 50.4617 14.0366C49.2174 14.0366 48.0077 14.3131 46.8671 14.797C47.4374 13.3281 48.0077 11.8419 48.5434 10.4421C49.2001 8.73123 49.8222 7.14135 50.3234 5.82796C50.4098 5.62059 50.3925 5.44777 50.3234 5.29224C50.237 5.11943 50.0469 5.01574 49.7877 5.01574H49.7704H48.1805H48.1632C47.9731 5.01574 47.7658 5.08486 47.5757 5.18855C47.351 5.30952 47.1609 5.48233 47.0572 5.68971C47.0399 5.74156 47.0054 5.77612 46.9881 5.82796C44.9316 11.0642 41.6481 19.5494 40.0928 23.6105C39.6608 24.7165 39.367 25.5115 39.246 25.8052C38.8313 26.8248 37.9499 28.0518 36.0835 28.0518C35.9107 28.0518 35.7552 28.0345 35.6169 28.0173C35.0294 27.9136 34.5282 27.6543 34.2517 27.2223C34.1999 27.1359 34.148 27.0495 34.0962 26.9458C33.9407 26.6002 33.8888 26.1681 33.9752 25.7015C34.0098 25.4769 34.1307 25.114 34.269 24.7511C34.4591 24.2326 34.6492 23.7315 34.6492 23.7315C34.6492 23.7315 35.3404 21.9688 36.3255 19.4111C36.4292 19.1346 36.5501 18.8408 36.6711 18.5298C36.6884 18.4952 36.7057 18.4607 36.7057 18.4261C38.2264 14.5205 40.2656 9.24968 41.7346 5.44777C42.3221 3.90973 42.8233 2.61363 43.1689 1.74956C43.3417 1.30024 43.0998 0.937332 42.6159 0.937332H41.0087C40.5249 0.937332 40.0064 1.30024 39.8336 1.74956C39.6435 2.23344 37.9499 6.62291 36.049 11.5308C33.595 17.8558 30.8127 25.0449 30.5189 25.8225C30.4498 25.9781 30.3807 26.1336 30.2943 26.2891C30.0351 26.7903 29.6376 27.2742 29.0846 27.6198C28.6353 27.8963 28.0477 28.0691 27.3392 28.0864C26.6825 28.0864 26.1295 27.8963 25.7493 27.5334C25.6629 27.447 25.5765 27.3606 25.4901 27.2569C25.2308 26.8594 25.1272 26.3582 25.2308 25.7707V25.7534C25.3172 25.2522 25.9912 23.4895 25.9912 23.455C26.4233 22.349 26.9244 21.0356 27.4601 19.6358C29.2401 15.0562 31.4176 9.38793 32.8174 5.81068C32.8519 5.70699 32.8692 5.6033 32.8692 5.49962C32.8519 5.36136 32.8001 5.22311 32.6964 5.13671C32.5927 5.0503 32.4545 4.99846 32.2644 4.99846H30.6572C30.4844 4.99846 30.2943 5.0503 30.1215 5.13671C29.8795 5.25768 29.6722 5.44777 29.5512 5.67243C29.5339 5.70699 29.4993 5.75884 29.4821 5.7934C29.0673 6.84756 28.618 8.0227 28.1341 9.26696C27.6157 10.6149 27.0627 12.0493 26.4924 13.4836C24.2804 19.1865 22.0856 24.9066 21.7227 25.8225C21.6017 26.1163 21.4462 26.4101 21.2561 26.7039C20.7377 27.447 19.9082 28.0691 18.5429 28.0691C18.0418 28.0691 17.5925 27.9481 17.2296 27.7407C17.0222 27.6025 16.8321 27.447 16.7111 27.2396C16.6247 27.1013 16.5556 26.9631 16.5037 26.8076C16.4001 26.4965 16.3828 26.1336 16.4519 25.7361C16.5383 25.2522 17.0222 23.9907 17.1086 23.8006C17.1086 23.7833 17.1259 23.766 17.1259 23.766L20.4266 15.2636C20.5994 14.8143 20.3575 14.4514 19.8736 14.4514H18.2664C17.9727 14.4514 17.6616 14.5896 17.4197 14.797C17.4024 14.797 17.4024 14.8143 17.4024 14.8143C17.2641 14.9352 17.1604 15.0908 17.1086 15.2463L16.7802 16.1104L16.2618 17.4583C16.1581 17.3028 16.0544 17.1473 15.9507 16.9917C15.8471 16.8362 15.7261 16.698 15.6051 16.5597C15.0867 15.9549 14.4645 15.4364 13.7906 15.0389C12.6327 14.3477 11.2675 13.9848 9.79857 13.9848C6.18676 13.9848 2.76505 16.2659 1.08876 19.4803C0.622159 20.3789 0.293813 21.3466 0.13828 22.349C-0.224629 24.6992 0.38022 26.9285 1.83186 28.6048C2.28117 29.1233 2.78233 29.5726 3.35262 29.9355C3.4563 30.0046 3.57727 30.0737 3.69824 30.1429C4.8561 30.8168 6.20404 31.1797 7.65568 31.1797C9.98867 31.1797 12.2525 30.212 14.0152 28.6739C14.0671 28.7776 14.1362 28.8813 14.2053 28.985C14.2399 29.0369 14.2917 29.106 14.3263 29.1578C14.3263 29.1751 14.3436 29.1751 14.3436 29.1924C14.3781 29.2442 14.43 29.2961 14.4645 29.3479C14.4991 29.3825 14.5337 29.417 14.5509 29.4516C14.5682 29.4862 14.6028 29.5035 14.6374 29.538C14.6892 29.5899 14.741 29.6417 14.7756 29.6935C14.7929 29.7108 14.8102 29.7281 14.8275 29.7454C14.8966 29.7972 14.9484 29.8664 15.0175 29.9182C15.0175 29.9182 15.0175 29.9182 15.0348 29.9355C15.6224 30.4366 16.3655 30.8341 17.2296 31.0415C17.2468 31.0415 17.2641 31.0588 17.2814 31.0588C17.3678 31.0761 17.4542 31.0933 17.5406 31.1106C17.5752 31.1106 17.6098 31.1279 17.6616 31.1279C17.7307 31.1452 17.7998 31.1452 17.8863 31.1625C17.9554 31.1625 18.0072 31.1797 18.0763 31.1797C18.1282 31.1797 18.18 31.197 18.2492 31.197C18.3701 31.197 18.4911 31.2143 18.6294 31.2143C19.528 31.2143 20.3748 31.0415 21.1524 30.7131C21.4462 30.5922 21.7227 30.4539 21.9819 30.2811C22.0683 30.2293 22.1548 30.1774 22.2412 30.1083C22.5868 29.8664 22.9151 29.6071 23.2089 29.2961C23.3126 29.4343 23.4336 29.5553 23.5545 29.6763C24.3495 30.4885 25.4209 30.9896 26.6479 31.1452C26.6825 31.1452 26.7343 31.1625 26.7689 31.1625C26.8034 31.1625 26.838 31.1625 26.8726 31.1625C26.9417 31.1625 27.0108 31.1797 27.0799 31.1797C27.1145 31.1797 27.1491 31.1797 27.1664 31.1797C27.2355 31.1797 27.3219 31.1797 27.391 31.1797C29.1883 31.1797 30.7782 30.5058 31.9533 29.2961C32.4026 29.8491 32.9729 30.2984 33.6296 30.6267C34.3727 30.9896 35.2195 31.1797 36.1181 31.1797C36.5847 31.1797 37.034 31.1279 37.4661 31.0415C39.3497 30.6613 40.905 29.4689 41.8555 27.6716C41.9074 27.758 41.9592 27.8272 42.0111 27.9136C42.0802 28.0173 42.1493 28.1209 42.2184 28.2246C42.3221 28.3629 42.4258 28.4838 42.5295 28.6221C43.9639 30.2811 46.0203 31.197 48.3533 31.197C51.5331 31.197 54.5746 29.417 56.3892 26.8248C57.2187 25.6324 57.789 24.2845 58.0136 22.8501C58.0655 22.4872 58.1 22.1243 58.1173 21.7614C58.4284 21.7268 58.7394 21.675 59.0332 21.6059C60.3639 21.3466 61.6081 20.9146 62.7141 20.327C62.6796 20.4134 62.645 20.5171 62.6105 20.6035C62.092 21.9688 61.6254 23.1439 61.3835 23.7833C60.6231 25.7015 60.7441 27.5679 61.7291 29.0196C62.092 29.5553 62.5586 30.0046 63.0943 30.3502C63.9584 30.9032 64.9953 31.2143 66.1359 31.2143C68.8836 31.2143 71.1475 29.6417 72.2189 26.9804C72.3572 26.6347 72.6337 25.9089 72.9966 24.9584C73.7569 23.0057 74.8975 20.0678 75.9344 17.4065C76.0208 17.1645 76.1245 16.9226 76.2109 16.698C77.1095 17.8212 78.3192 18.668 79.4944 19.1692C79.5635 19.2037 79.6153 19.221 79.6845 19.2556C79.8227 19.3074 79.961 19.3593 80.0819 19.4111C79.4944 21.001 78.5612 23.5241 78.4402 23.8006C77.9736 24.993 77.8354 26.1509 78.0427 27.205C78.1637 27.8617 78.4229 28.4838 78.7858 29.0369C79.0278 29.3825 79.3043 29.6935 79.6153 29.97C80.4794 30.7131 81.6027 31.1625 82.8469 31.2316C82.9679 31.2316 83.0716 31.2489 83.1926 31.2489C83.3827 31.2489 83.5728 31.2316 83.7629 31.2143C83.7974 31.2143 83.8493 31.2143 83.8838 31.197C83.9011 31.197 83.9184 31.197 83.9357 31.197C84.7306 31.1106 85.491 30.8687 86.1995 30.5231C86.9254 30.1601 87.582 29.6763 88.1351 29.106C89.2238 30.1774 90.6236 30.8687 92.1962 31.1279C92.6282 31.197 93.0775 31.2316 93.5441 31.2316C94.1317 31.2316 94.7193 31.1625 95.2896 31.0588C96.8622 30.7477 98.3484 30.0046 99.5926 28.985C99.7136 28.8986 99.8173 28.7949 99.921 28.6912C99.9901 28.8122 100.059 28.9332 100.128 29.0369C100.733 29.9182 101.597 30.5576 102.617 30.9205C102.669 30.9378 102.721 30.9551 102.755 30.9724C102.807 30.9896 102.876 31.0069 102.928 31.0242C102.997 31.0415 103.049 31.0588 103.118 31.0761C103.17 31.0933 103.222 31.0933 103.274 31.1106C103.343 31.1279 103.395 31.1452 103.464 31.1452C103.515 31.1625 103.567 31.1625 103.619 31.1797C103.688 31.197 103.74 31.197 103.809 31.197C103.878 31.197 103.948 31.2143 104.017 31.2143C104.068 31.2143 104.12 31.2316 104.172 31.2316C104.293 31.2316 104.414 31.2489 104.552 31.2489C107.3 31.2489 109.564 29.6763 110.635 27.0149C110.687 26.8594 111.69 24.3536 112.502 22.2798C112.744 21.6577 112.968 21.0701 113.141 20.6035C113.228 20.7936 113.331 21.001 113.418 21.1911C113.746 21.8478 114.092 22.5218 114.455 23.213C114.748 23.766 115.059 24.3363 115.336 24.9066C116.183 26.6002 116.891 28.3283 116.891 30.0219C116.891 35.0162 113.504 35.8976 112.467 36.0531C111.776 36.1568 111.258 36.6925 111.154 37.3492C111.137 37.5047 111.119 37.6603 111.154 37.8158C111.154 37.8676 111.171 37.9195 111.188 37.954C111.361 38.6453 111.983 39.1465 112.692 39.1465C112.726 39.1465 112.761 39.1465 112.813 39.1465C112.847 39.1465 112.882 39.1465 112.934 39.1465C113.746 39.0255 114.61 38.7663 115.422 38.3688C117.824 37.0209 119.985 34.3941 119.985 29.9182ZM100.076 22.3317C99.7827 24.3709 98.4866 26.1681 96.793 27.1877C96.7757 27.205 96.7412 27.2223 96.7239 27.2223C96.7239 27.2223 96.7066 27.2223 96.7066 27.2396C95.808 27.758 94.8057 28.0518 93.7688 28.0518C93.2849 28.0518 92.8183 27.9827 92.3863 27.8444C91.6259 27.6025 90.9519 27.1705 90.4508 26.5656C89.9496 25.9608 89.6385 25.2177 89.5176 24.3882V24.3709C89.4484 23.8697 89.4484 23.3513 89.5348 22.8156C89.6558 22.0206 89.915 21.2602 90.3125 20.569C90.8309 19.6358 91.5568 18.8408 92.4036 18.236C93.4232 17.5275 94.6156 17.0954 95.8425 17.0954C96.6721 17.0954 97.4324 17.2855 98.0719 17.6657C98.4866 17.9076 98.8495 18.2187 99.1606 18.5816C99.3161 18.7717 99.4544 18.9618 99.558 19.1692C99.9555 19.8604 100.146 20.6727 100.146 21.5367C100.146 21.796 100.128 22.0552 100.076 22.3317ZM46.9362 27.8963C46.0895 27.6716 45.3636 27.2223 44.8279 26.5483C44.0157 25.5633 43.6874 24.2326 43.8947 22.7983V22.781C43.9466 22.4181 44.033 22.107 44.1194 21.8478C44.2404 21.5367 44.3613 21.2084 44.4996 20.88C44.5169 20.8282 44.5514 20.7936 44.5687 20.7418C44.6205 20.6554 44.6551 20.569 44.707 20.4826C44.7242 20.448 44.7415 20.4307 44.7588 20.3962C45.139 19.7568 45.6056 19.1865 46.1413 18.7026C47.2819 17.7003 48.7162 17.0781 50.2024 17.0781C50.8764 17.0781 51.5158 17.2164 52.0688 17.4583C52.6391 17.7176 53.123 18.0805 53.5205 18.5643C54.3327 19.5494 54.661 20.88 54.4537 22.3317C53.9871 25.4769 51.1529 28.0518 48.1287 28.0518C47.7139 28.0518 47.3164 28 46.9362 27.8963ZM7.82849 28.0518C6.46326 28.0518 5.28813 27.5161 4.49319 26.5656C4.40678 26.4619 4.33766 26.3582 4.26853 26.2546C3.61184 25.3041 3.3699 24.0944 3.55999 22.7983C4.02659 19.6531 6.87802 17.0781 9.91954 17.0781C11.2848 17.0781 12.4599 17.6139 13.2548 18.5643C14.0671 19.5494 14.4127 20.88 14.188 22.3317C14.1535 22.5736 14.1016 22.8156 14.0325 23.0575C13.2721 25.8571 10.6281 28.0518 7.82849 28.0518Z" fill="#212121" style="transition: none !important; animation-duration: 0s !important; animation-delay: -0.0001s; animation-play-state: paused; fill: rgb(33, 33, 33); transform-origin: 0px 0px; transition-property: none; visibility: visible"></path></g><defs style="transition: none !important; animation-duration: 0s !important; visibility: visible"><clipPath id="clip0_358_2556" style="transition: none !important; animation-duration: 0s !important; animation-delay: -0.0001s; animation-play-state: paused; fill: none; transform-origin: 0px 0px; transition-property: none; visibility: visible"><rect width="119.985" height="38.14" fill="white" transform="translate(0 0.920044)" style="transition: none !important; animation-duration: 0s !important; animation-delay: -0.0001s; animation-play-state: paused; fill: rgb(255, 255, 255); transform: matrix(1, 0, 0, 1, 0, 0.920044); transform-origin: 0px 0px; transition-property: none; visibility: visible" /></clipPath></defs></svg>