<?xml version="1.0" encoding="UTF-8"?>
<svg width="22" height="18" viewBox="0 0 14 14" fill="none" xmlns="http://www.w3.org/2000/svg" style="transition: none !important; animation-duration: 0s !important; animation-delay: -0.0001s; animation-play-state: paused; fill: none; height: 18px; transition-property: none; visibility: visible; width: 22px"><path fill-rule="evenodd" clip-rule="evenodd" d="M0 0.388889C0 0.174111 0.174111 0 0.388889 0H13.6111C13.8259 0 14 0.174111 14 0.388889C14 0.603666 13.8259 0.777778 13.6111 0.777778H0.388889C0.174111 0.777778 0 0.603666 0 0.388889ZM0 6.87037C0 6.65559 0.174111 6.48148 0.388889 6.48148H13.6111C13.8259 6.48148 14 6.65559 14 6.87037C14 7.08515 13.8259 7.25926 13.6111 7.25926H0.388889C0.174111 7.25926 0 7.08515 0 6.87037ZM0.388889 12.963C0.174111 12.963 0 13.1371 0 13.3518C0 13.5666 0.174111 13.7407 0.388889 13.7407H13.6111C13.8259 13.7407 14 13.5666 14 13.3518C14 13.1371 13.8259 12.963 13.6111 12.963H0.388889Z" fill="currentColor" style="transition: none !important; animation-duration: 0s !important; animation-delay: -0.0001s; animation-play-state: paused; fill: rgb(33, 33, 33); fill-rule: evenodd; transform-origin: 0px 0px; transition-property: none; visibility: visible"></path></svg>